<svg width="65" height="64" viewBox="0 0 65 64" fill="none" xmlns="http://www.w3.org/2000/svg">
<g clip-path="url(#clip0_1_41)">
<path d="M13.6975 16.1818C11.6589 16.1818 10 17.8234 10 19.8409C10 21.8584 11.6589 23.5 13.6975 23.5H25.3183C27.3569 23.5 29.0158 21.8584 29.0158 19.8409C29.0158 17.8234 27.3569 16.1818 25.3183 16.1818H22.6772V12.948H24.7901C25.374 12.948 25.8465 12.4799 25.8465 11.9025V9.90909H43.8307C45.5783 9.90909 47 8.50217 47 6.77273C47 5.04328 45.5783 3.63636 43.8307 3.63636H25.8465V1.54545C25.8465 0.968102 25.374 0.5 24.7901 0.5H22.8103C17.4941 0.5 13.1693 4.77983 13.1693 10.0408V11.9025C13.1693 12.4799 13.6418 12.948 14.2257 12.948H16.3386V16.1818H13.6975ZM26.9029 19.8409C26.9029 20.7058 26.1922 21.4091 25.3183 21.4091H13.6975C12.8236 21.4091 12.1129 20.7058 12.1129 19.8409C12.1129 18.9761 12.8236 18.2727 13.6975 18.2727H25.3183C26.1922 18.2727 26.9029 18.9761 26.9029 19.8409ZM43.8307 5.72727C44.4136 5.72727 44.8871 6.19642 44.8871 6.77273C44.8871 7.34903 44.4136 7.81818 43.8307 7.81818H25.8465V5.72727H43.8307ZM15.2822 10.0408C15.2822 5.93297 18.6591 2.59091 22.8103 2.59091H23.7336V10.8571H15.2822V10.0408ZM18.4515 12.948H20.5643V16.1818H18.4515V12.948Z" fill="#E77523"/>
<path d="M9.44801 30.4136C9.7887 30.227 10 29.8687 10 29.4792C10 29.0902 9.7887 28.7313 9.44801 28.5447L7.17482 27.2958L5.93006 25.0116C5.55942 24.3295 4.44085 24.3295 4.06994 25.0116L2.82518 27.2958L0.551991 28.5447C0.211305 28.7313 0 29.0902 0 29.4792C0 29.8687 0.211305 30.227 0.551991 30.4136L2.82624 31.662L4.06994 33.9462C4.25526 34.2873 4.61265 34.5 5 34.5C5.38735 34.5 5.74474 34.2873 5.93006 33.9462L7.17376 31.662L9.44801 30.4136ZM5.88419 29.9432C5.70603 30.0409 5.55995 30.1881 5.46264 30.3665L4.99973 31.2161L4.53683 30.3665C4.43953 30.1881 4.29344 30.0409 4.11528 29.9432L3.27006 29.4794L4.11528 29.0151C4.29344 28.9174 4.43953 28.7702 4.53683 28.5918L4.99973 27.7423L5.46264 28.5918C5.55995 28.7702 5.70603 28.9174 5.88419 29.0151L6.72941 29.4794L5.88419 29.9432Z" fill="#E77523"/>
<path d="M64.4413 27.5343L60.24 25.23L57.9414 21.017C57.5662 20.3277 56.4341 20.3277 56.0586 21.017L53.76 25.23L49.5587 27.5343C49.2139 27.7229 49 28.085 49 28.4787C49 28.8723 49.2139 29.2345 49.5587 29.4231L53.76 31.7268L56.0586 35.9403C56.2462 36.285 56.6079 36.5 57 36.5C57.3921 36.5 57.7538 36.285 57.9414 35.9403L60.24 31.7268L64.4413 29.4231C64.7861 29.2345 65 28.8723 65 28.4787C65 28.085 64.7861 27.7229 64.4413 27.5343ZM58.9337 29.9895C58.7534 30.0882 58.6055 30.237 58.507 30.4173L56.9997 33.1806L55.4924 30.4173C55.3939 30.237 55.2461 30.0882 55.0657 29.9895L52.3098 28.4787L55.0657 26.9673C55.2461 26.8686 55.3939 26.7198 55.4924 26.5395L56.9997 23.7763L58.507 26.5395C58.6055 26.7198 58.7534 26.8686 58.9337 26.9673L61.6897 28.4787L58.9337 29.9895Z" fill="#E77523"/>
<path d="M6 6.5C6.55275 6.5 7 5.97555 7 5.3287V3.6713C7 3.02445 6.55275 2.5 6 2.5C5.44725 2.5 5 3.02445 5 3.6713V5.3287C5 5.97555 5.4475 6.5 6 6.5Z" fill="#E77523"/>
<path d="M6 12.5C6.55275 12.5 7 11.9755 7 11.3287V9.6713C7 9.02445 6.55275 8.5 6 8.5C5.44725 8.5 5 9.02445 5 9.6713V11.3287C5 11.9755 5.4475 12.5 6 12.5Z" fill="#E77523"/>
<path d="M2.1713 7.5H3.8287C4.47613 7.5 5 7.05225 5 6.5C5 5.94775 4.47613 5.5 3.8287 5.5H2.1713C1.52387 5.5 1 5.94775 1 6.5C1 7.05225 1.52387 7.5 2.1713 7.5Z" fill="#E77523"/>
<path d="M8.1713 7.5H9.8287C10.4761 7.5 11 7.05225 11 6.5C11 5.94775 10.4761 5.5 9.8287 5.5H8.1713C7.52387 5.5 7 5.94775 7 6.5C7 7.05225 7.52387 7.5 8.1713 7.5Z" fill="#E77523"/>
<path d="M43 17C43 18.9297 44.5703 20.5 46.5 20.5C48.4297 20.5 50 18.9297 50 17C50 15.0703 48.4297 13.5 46.5 13.5C44.5703 13.5 43 15.0703 43 17ZM48 17C48 17.8273 47.3273 18.5 46.5 18.5C45.6727 18.5 45 17.8273 45 17C45 16.1727 45.6727 15.5 46.5 15.5C47.3273 15.5 48 16.1727 48 17Z" fill="#E77523"/>
<path d="M61 13.5C61.5524 13.5 62 13.0522 62 12.5001C62 11.948 61.5522 11.5 61 11.5C60.4478 11.5 60 11.9478 60 12.5001C60 13.0524 60.4478 13.5 61 13.5Z" fill="#E77523"/>
<path d="M52.199 42.3495L48.0284 31.2932C47.1712 29.0242 44.9588 27.5 42.5213 27.5H20.0343C17.7073 27.5 15.5944 28.9554 14.7769 31.1212L10.5315 42.3765C8.54403 42.6367 7 44.3125 7 46.3576V54.1718C7 56.3964 8.82046 58.2059 11.059 58.2059H11.2609V60.4223C11.2609 62.119 12.6496 63.5 14.3567 63.5H17.752C19.459 63.5 20.8478 62.119 20.8478 60.4223V58.2059H42.1522V60.4223C42.1522 62.119 43.541 63.5 45.248 63.5H48.6433C50.3504 63.5 51.7391 62.119 51.7391 60.4223V58.2059H51.941C54.1795 58.2059 56 56.3964 56 54.1718V46.3576C55.9997 44.2209 54.3154 42.4847 52.199 42.3495ZM16.772 31.8645C17.2785 30.5208 18.5904 29.6176 20.0343 29.6176H42.5213C44.0754 29.6176 45.4871 30.5902 46.0333 32.0368L49.9133 42.3235H33.5465L41.5967 37.9591C42.1136 37.6787 42.304 37.0358 42.0222 36.5222C41.7405 36.0087 41.0912 35.8202 40.5772 36.0998L29.0982 42.3235H12.8273L16.772 31.8645ZM18.7171 60.4223C18.7171 60.9517 18.2844 61.3824 17.7518 61.3824H14.3564C13.8238 61.3824 13.391 60.9517 13.391 60.4223V58.2059H18.7171V60.4223ZM49.6084 60.4223C49.6084 60.9517 49.1757 61.3824 48.6431 61.3824H45.2477C44.7151 61.3824 44.2823 60.9517 44.2823 60.4223V58.2059H49.6084V60.4223ZM53.8693 54.1718C53.8693 55.2285 53.0038 56.0882 51.9407 56.0882H11.059C9.99592 56.0882 9.13043 55.2285 9.13043 54.1718V46.3576C9.13043 45.3009 9.99592 44.4412 11.059 44.4412H11.2899H51.451H51.941C53.0041 44.4412 53.8696 45.3009 53.8696 46.3576L53.8693 54.1718Z" fill="#E77523"/>
<path d="M47.5 45.5C45.0191 45.5 43 47.5187 43 50.0003C43 52.4816 45.0194 54.5 47.5 54.5C49.9806 54.5 52 52.4813 52 50.0003C52 47.5184 49.9809 45.5 47.5 45.5ZM47.5 52.3273C46.217 52.3273 45.1731 51.2832 45.1731 50.0005C45.1731 48.7171 46.2173 47.6733 47.5 47.6733C48.7827 47.6733 49.8269 48.7174 49.8269 50.0005C49.8269 51.2832 48.783 52.3273 47.5 52.3273Z" fill="#E77523"/>
<path d="M14.5 45.5C12.0191 45.5 10 47.5187 10 50.0003C10 52.4816 12.0194 54.5 14.5 54.5C16.9806 54.5 19 52.4813 19 50.0003C19.0003 47.5184 16.9809 45.5 14.5 45.5ZM14.5 52.3273C13.217 52.3273 12.1731 51.2832 12.1731 50.0005C12.1731 48.7171 13.2173 47.6733 14.5 47.6733C15.7827 47.6733 16.8269 48.7174 16.8269 50.0005C16.8271 51.2832 15.783 52.3273 14.5 52.3273Z" fill="#E77523"/>
</g>
<defs>
<clipPath id="clip0_1_41">
<rect width="65" height="63" fill="white" transform="translate(0 0.5)"/>
</clipPath>
</defs>
</svg>
