<svg width="65" height="61" viewBox="0 0 65 61" fill="none" xmlns="http://www.w3.org/2000/svg">
<g clip-path="url(#clip0_1_2)">
<path d="M65 24.1351C65 18.271 60.195 13.5 54.288 13.5C51.9804 13.5 49.8464 14.2353 48.0961 15.4723C48.0882 15.472 48.082 15.468 48.0739 15.468H13.5198C10.145 15.468 7.39975 18.1935 7.39975 21.5441V31.5509H6.03713C3.81081 31.5509 2 33.3487 2 35.5584V56.4924C2 58.7022 3.81081 60.5 6.03713 60.5H12.0022C14.2286 60.5 16.0394 58.7022 16.0394 56.4924V35.5584C16.0394 33.3487 14.2286 31.5509 12.0022 31.5509H9.55966V21.5441C9.55966 19.3761 11.3356 17.6124 13.5198 17.6124H21.5709C22.0782 20.0854 24.2467 21.9011 26.8389 21.9011H36.5584C39.1522 21.9011 41.3199 20.0851 41.8262 17.6124H45.8455C44.4288 19.4158 43.5759 21.6763 43.5759 24.1351C43.5759 27.7014 45.3592 30.8558 48.081 32.786C47.6347 33.3468 47.3579 34.0338 47.3579 34.7674C47.3579 35.5941 47.6825 36.3414 48.2006 36.9118C47.6825 37.4822 47.3579 38.2295 47.3579 39.0562C47.3579 39.8829 47.6825 40.6302 48.2006 41.2006C47.6825 41.771 47.3579 42.5183 47.3579 43.345C47.3579 44.1716 47.6825 44.9189 48.2006 45.4893C47.6825 46.0597 47.3579 46.8071 47.3579 47.6337C47.3579 48.4604 47.6825 49.2077 48.2006 49.7781C47.6825 50.3485 47.3579 51.0958 47.3579 51.9225C47.3579 52.7491 47.6825 53.4965 48.2006 54.0669C47.6825 54.6373 47.3579 55.3846 47.3579 56.2112C47.3579 57.9849 48.8113 59.4278 50.5978 59.4278H58.1574C59.9439 59.4278 61.3973 57.9849 61.3973 56.2112C61.3973 55.3846 61.0728 54.6373 60.5547 54.0669C61.0728 53.4965 61.3973 52.7491 61.3973 51.9225C61.3973 51.0958 61.0728 50.3485 60.5547 49.7781C61.0728 49.2077 61.3973 48.4604 61.3973 47.6337C61.3973 46.8071 61.0728 46.0597 60.5547 45.4893C61.0728 44.9189 61.3973 44.1716 61.3973 43.345C61.3973 42.5183 61.0728 41.771 60.5547 41.2006C61.0728 40.6302 61.3973 39.8829 61.3973 39.0562C61.3973 38.2295 61.0728 37.4822 60.5547 36.9118C61.0728 36.3414 61.3973 35.5941 61.3973 34.7674C61.3973 33.9877 61.1119 33.2586 60.6254 32.6893C63.2726 30.7513 65 27.6435 65 24.1351ZM13.8795 35.5584V36.9118H11.7196C11.1226 36.9118 10.6396 37.3919 10.6396 37.984C10.6396 38.5761 11.1226 39.0562 11.7196 39.0562H13.8795V43.345H11.7196C11.1226 43.345 10.6396 43.825 10.6396 44.4171C10.6396 45.0093 11.1226 45.4893 11.7196 45.4893H13.8795V49.7781H11.7196C11.1226 49.7781 10.6396 50.2582 10.6396 50.8503C10.6396 51.4424 11.1226 51.9225 11.7196 51.9225H13.8795V56.4924C13.8795 57.5196 13.0368 58.3556 12.0022 58.3556H6.03713C5.00253 58.3556 4.1599 57.5196 4.1599 56.4924V55.139H6.3198C6.91675 55.139 7.39975 54.659 7.39975 54.0669C7.39975 53.4747 6.91675 52.9947 6.3198 52.9947H4.1599V48.7059H6.3198C6.91675 48.7059 7.39975 48.2258 7.39975 47.6337C7.39975 47.0416 6.91675 46.5615 6.3198 46.5615H4.1599V42.2728H6.3198C6.91675 42.2728 7.39975 41.7927 7.39975 41.2006C7.39975 40.6085 6.91675 40.1284 6.3198 40.1284H4.1599V35.5584C4.1599 34.5313 5.00253 33.6952 6.03713 33.6952H12.0022C13.0368 33.6952 13.8795 34.5313 13.8795 35.5584ZM36.5584 19.7568H26.8389C25.4365 19.7568 24.2394 18.8717 23.7921 17.6124H39.605C39.1581 18.8719 37.9613 19.7568 36.5584 19.7568ZM45.7358 24.1351C45.7358 19.4531 49.5726 15.6444 54.288 15.6444C59.0033 15.6444 62.8401 19.4531 62.8401 24.1351C62.8401 28.8165 59.0033 32.6252 54.288 32.6252C49.5726 32.6252 45.7358 28.8165 45.7358 24.1351ZM58.1574 37.984C58.7533 37.984 59.2374 38.4651 59.2374 39.0562C59.2374 39.6472 58.7533 40.1284 58.1574 40.1284H50.5978C50.0019 40.1284 49.5178 39.6472 49.5178 39.0562C49.5178 38.4651 50.0019 37.984 50.5978 37.984H58.1574ZM59.2374 43.345C59.2374 43.936 58.7533 44.4171 58.1574 44.4171H50.5978C50.0019 44.4171 49.5178 43.936 49.5178 43.345C49.5178 42.7539 50.0019 42.2728 50.5978 42.2728H58.1574C58.7533 42.2728 59.2374 42.7539 59.2374 43.345ZM59.2374 47.6337C59.2374 48.2248 58.7533 48.7059 58.1574 48.7059H50.5978C50.0019 48.7059 49.5178 48.2248 49.5178 47.6337C49.5178 47.0427 50.0019 46.5615 50.5978 46.5615H58.1574C58.7533 46.5615 59.2374 47.0427 59.2374 47.6337ZM59.2374 51.9225C59.2374 52.5135 58.7533 52.9947 58.1574 52.9947H50.5978C50.0019 52.9947 49.5178 52.5135 49.5178 51.9225C49.5178 51.3314 50.0019 50.8503 50.5978 50.8503H58.1574C58.7533 50.8503 59.2374 51.3314 59.2374 51.9225ZM58.1574 57.2834H50.5978C50.0019 57.2834 49.5178 56.8023 49.5178 56.2112C49.5178 55.6202 50.0019 55.139 50.5978 55.139H58.1574C58.7533 55.139 59.2374 55.6202 59.2374 56.2112C59.2374 56.8023 58.7533 57.2834 58.1574 57.2834ZM59.2374 34.7674C59.2374 35.3585 58.7533 35.8396 58.1574 35.8396H50.5978C50.0019 35.8396 49.5178 35.3585 49.5178 34.7674C49.5178 34.4077 49.7068 34.0751 50.0073 33.8775C51.3197 34.4479 52.7658 34.7696 54.2877 34.7696C55.8474 34.7696 57.3261 34.4292 58.6639 33.8317C59.0114 34.0182 59.2374 34.3702 59.2374 34.7674Z" fill="#E77523"/>
<path d="M54.5006 31.5C58.6359 31.5 62 28.1358 62 24.0003C62 19.8648 58.6359 16.5 54.5006 16.5C50.3652 16.5 47 19.8648 47 24.0003C47 28.1358 50.3655 31.5 54.5006 31.5ZM54.5006 18.7214C57.4113 18.7214 59.7789 21.0895 59.7789 24.0006C59.7789 26.9108 57.4115 29.2791 54.5006 29.2791C51.5896 29.2791 49.2211 26.9111 49.2211 24.0006C49.2213 21.0895 51.5898 18.7214 54.5006 18.7214Z" fill="#E77523"/>
<path d="M36 32.6657C36 31.0274 33.7243 26.4329 33.0269 25.064C32.6429 24.312 31.3571 24.312 30.9731 25.064C30.2757 26.4329 28 31.0271 28 32.6657C28 34.7798 29.7946 36.5 32 36.5C34.2054 36.5 36 34.7798 36 32.6657ZM30.2857 32.6657C30.2857 32.0911 31.0626 30.1538 32 28.1367C32.9374 30.1532 33.7143 32.0909 33.7143 32.6657C33.7143 33.572 32.9454 34.309 32 34.309C31.0546 34.309 30.2857 33.572 30.2857 32.6657Z" fill="#E77523"/>
<path d="M4.49942 8.5C6.42934 8.5 8 6.92992 8 5C8 3.07008 6.42934 1.5 4.49942 1.5C2.56951 1.5 1 3.07008 1 5C1 6.92992 2.56951 8.5 4.49942 8.5ZM4.49942 3.81434C5.15372 3.81434 5.68595 4.34657 5.68595 5.00029C5.68595 5.65401 5.15372 6.18624 4.49942 6.18624C3.84628 6.18624 3.31405 5.65401 3.31405 5.00029C3.31405 4.34657 3.84628 3.81434 4.49942 3.81434Z" fill="#E77523"/>
<path d="M49 4.5C49.5527 4.5 50 3.97555 50 3.3287V1.6713C50 1.02445 49.5527 0.5 49 0.5C48.4473 0.5 48 1.02445 48 1.6713V3.3287C48 3.97555 48.4473 4.5 49 4.5Z" fill="#E77523"/>
<path d="M49 10.5C49.5527 10.5 50 9.97555 50 9.3287V7.6713C50 7.02445 49.5527 6.5 49 6.5C48.4473 6.5 48 7.02445 48 7.6713V9.3287C48 9.97555 48.4473 10.5 49 10.5Z" fill="#E77523"/>
<path d="M46.1713 6.5H47.8287C48.4761 6.5 49 6.05225 49 5.5C49 4.94775 48.4761 4.5 47.8287 4.5H46.1713C45.5239 4.5 45 4.94775 45 5.5C45 6.05225 45.5239 6.5 46.1713 6.5Z" fill="#E77523"/>
<path d="M52.1713 6.5H53.8287C54.4761 6.5 55 6.05225 55 5.5C55 4.94775 54.4761 4.5 53.8287 4.5H52.1713C51.5239 4.5 51 4.94775 51 5.5C51 6.05225 51.5239 6.5 52.1713 6.5Z" fill="#E77523"/>
<path d="M37 5.5C37.5524 5.5 38 5.0522 38 4.50012C38 3.94803 37.5522 3.5 37 3.5C36.4478 3.5 36 3.9478 36 4.50012C36 5.05244 36.4476 5.5 37 5.5Z" fill="#E77523"/>
<path d="M2 17.5001C2 16.9478 1.55215 16.5 1 16.5C0.447848 16.5 0 16.9478 0 17.5001C0 18.0524 0.447848 18.5 1 18.5C1.55215 18.5 2 18.0524 2 17.5001Z" fill="#E77523"/>
<path d="M41.5317 46.2131L40.0676 42.0813C39.5208 40.5373 38.0697 39.5 36.4553 39.5H26.1885C24.574 39.5 23.1229 40.5373 22.5773 42.0802L21.0669 46.3402C19.8639 46.7931 19 47.9613 19 49.3402V53.9759C19 55.3948 19.9161 56.5874 21.174 57.0096V58.1223C21.174 59.4331 22.2226 60.5 23.5123 60.5H25.3572C26.6469 60.5 27.6956 59.4331 27.6956 58.1223V57.1842H35.3044V58.1223C35.3044 59.4331 36.3531 60.5 37.6428 60.5H39.4877C40.7774 60.5 41.826 59.4331 41.826 58.1223V57.0096C43.0839 56.5874 44 55.3948 44 53.9759V49.3402C44.0003 47.8113 42.9418 46.5333 41.5317 46.2131ZM24.6227 42.8293C24.8594 42.1601 25.489 41.7105 26.1885 41.7105H36.4553C37.1547 41.7105 37.7844 42.1601 38.0222 42.8304L39.1926 46.1316H23.4515L24.6227 42.8293ZM25.5216 58.1223C25.5216 58.2146 25.4474 58.2895 25.3572 58.2895H23.5123C23.4221 58.2895 23.3479 58.2146 23.3479 58.1223V57.1842H25.5219L25.5216 58.1223ZM39.4879 58.2895H37.6431C37.5529 58.2895 37.4787 58.2146 37.4787 58.1223V57.1842H39.6526V58.1223C39.6524 58.2146 39.5782 58.2895 39.4879 58.2895ZM41.8263 53.9759C41.8263 54.5263 41.3858 54.9737 40.8456 54.9737H26.6086H22.2607C22.2419 54.9737 22.2262 54.9836 22.2077 54.9845C22.1892 54.9836 22.1734 54.9737 22.1547 54.9737C21.6145 54.9737 21.174 54.5263 21.174 53.9759V49.3402C21.174 48.7897 21.6145 48.3424 22.1547 48.3424H40.8456C41.3858 48.3424 41.8263 48.7897 41.8263 49.3402V53.9759Z" fill="#E77523"/>
<path d="M38.5 53.5C39.3284 53.5 40 52.8284 40 52C40 51.1716 39.3284 50.5 38.5 50.5C37.6716 50.5 37 51.1716 37 52C37 52.8284 37.6716 53.5 38.5 53.5Z" fill="#E77523"/>
<path d="M24.5 53.5C25.3284 53.5 26 52.8284 26 52C26 51.1716 25.3284 50.5 24.5 50.5C23.6716 50.5 23 51.1716 23 52C23 52.8284 23.6716 53.5 24.5 53.5Z" fill="#E77523"/>
</g>
<defs>
<clipPath id="clip0_1_2">
<rect width="65" height="60" fill="white" transform="translate(0 0.5)"/>
</clipPath>
</defs>
</svg>
