<svg width="65" height="65" viewBox="0 0 65 65" fill="none" xmlns="http://www.w3.org/2000/svg">
<g clip-path="url(#clip0_1_16)">
<path d="M37.5515 6.41332L39.8257 7.66214L41.0694 9.94574C41.2553 10.2878 41.6121 10.5 42 10.5C42.3879 10.5 42.7447 10.2878 42.9306 9.94574L44.1743 7.66214L46.4485 6.41332C46.7887 6.22723 47 5.86838 47 5.47943C47 5.09049 46.7887 4.73163 46.4485 4.54555L44.1743 3.29673L42.9306 1.01313C42.5589 0.328956 41.4414 0.328956 41.0694 1.01313L39.8257 3.29673L37.5515 4.54555C37.2113 4.73163 37 5.09049 37 5.47943C37 5.86838 37.2113 6.22723 37.5515 6.41332ZM41.1161 5.01462C41.2937 4.91692 41.4403 4.77023 41.5376 4.59134L42 3.74264L42.4624 4.59134C42.5597 4.77023 42.7063 4.91692 42.8839 5.01462L43.7294 5.47943L42.8839 5.94425C42.7063 6.04195 42.5597 6.18863 42.4624 6.36753L42 7.21623L41.5376 6.36753C41.4403 6.18863 41.2937 6.04195 41.1161 5.94425L40.2706 5.47943L41.1161 5.01462Z" fill="#E77523"/>
<path d="M60.4334 12.7131L56.168 10.3503L53.8351 6.03168C53.4531 5.32277 52.3049 5.32277 51.9227 6.03168L49.5903 10.3503L45.3244 12.7131C44.9754 12.9059 44.7578 13.2777 44.7578 13.6807C44.7578 13.7028 44.7651 13.7235 44.7665 13.7453H13.8863C10.0891 13.7453 7 16.8733 7 20.7177V45.3903C7 49.235 10.0891 52.3627 13.8863 52.3627H16.9928C17.4611 54.2371 18.8047 55.7283 20.0923 56.5748C20.2231 56.6601 20.6957 57.0716 21.2926 58.7493C22.5168 62.1887 25.7176 64.5 29.2568 64.5H36.6677C39.1535 64.5 41.5115 63.3859 42.9751 61.5195C45.0719 58.8464 46.2272 55.5986 46.2272 52.3749V52.363H52.4166C56.2137 52.363 59.3029 49.235 59.3029 45.3906V20.718C59.3029 19.0348 58.7044 17.4454 57.6445 16.1934L60.4334 14.6484C60.7829 14.4556 61 14.0838 61 13.6807C61 13.2777 60.7826 12.9059 60.4334 12.7131ZM50.9162 12.1311C51.0987 12.0298 51.2493 11.8779 51.3493 11.6925L52.8789 8.8596L54.409 11.6925C54.509 11.8779 54.6596 12.0298 54.8422 12.1311L57.6398 13.6805L54.8422 15.231C54.6596 15.3322 54.509 15.4842 54.409 15.6696L52.8789 18.5013L51.3493 15.6696C51.2493 15.4842 51.0987 15.3322 50.9162 15.231L48.1182 13.6805L50.9162 12.1311ZM44.0479 52.3749C44.0479 55.1021 43.0609 57.8627 41.2685 60.147C40.2145 61.4906 38.4948 62.2933 36.6677 62.2933H29.2568C26.6332 62.2933 24.2567 60.5682 23.343 58.0015C22.7424 56.3142 22.0676 55.242 21.2792 54.7237C20.1705 53.9952 18.9861 52.6333 18.9861 50.9965V39.6741C18.9861 38.7613 19.7191 38.019 20.6205 38.019C21.522 38.019 22.255 38.7613 22.255 39.6741V46.1563C22.255 46.7662 22.7429 47.2597 23.3447 47.2597C23.9464 47.2597 24.4343 46.7662 24.4343 46.1563V27.5801C24.4343 26.6436 25.1867 25.882 26.1118 25.882C27.0369 25.882 27.7893 26.6439 27.7893 27.5801V45.2921C27.7893 45.902 28.2772 46.3955 28.8789 46.3955C29.4807 46.3955 29.9686 45.902 29.9686 45.2921V23.0654C29.9686 22.1852 30.6763 21.4686 31.5456 21.4686C32.4148 21.4686 33.1226 22.1852 33.1226 23.0654V43.8117C33.1226 44.4215 33.6105 44.915 34.2122 44.915C34.814 44.915 35.3019 44.4215 35.3019 43.8117V26.4627C35.3019 25.5414 36.0414 24.7924 36.9508 24.7924C37.8601 24.7924 38.5997 25.5414 38.5997 26.4627V42.7083C38.5997 43.3182 39.0875 43.8117 39.6893 43.8117C40.2911 43.8117 40.7789 43.3182 40.7789 42.7083V30.8471C40.7789 29.9344 41.512 29.1921 42.4134 29.1921C43.3148 29.1921 44.0479 29.9344 44.0479 30.8471V52.3749ZM57.1236 45.3903C57.1236 48.0182 55.0119 50.156 52.4166 50.156H46.2272V30.8471C46.2272 28.7179 44.5162 26.9854 42.4134 26.9854C41.8264 26.9854 41.2764 27.1316 40.7789 27.3727V26.4627C40.7789 24.3249 39.0614 22.5857 36.9508 22.5857C36.3547 22.5857 35.7971 22.7363 35.2937 22.9835C35.2496 20.9252 33.5892 19.2616 31.5456 19.2616C29.4742 19.2616 27.7893 20.9685 27.7893 23.0651V24.0802C27.2799 23.8287 26.7155 23.675 26.1118 23.675C23.9851 23.675 22.255 25.4272 22.255 27.5798V36.1993C21.7576 35.9582 21.2076 35.812 20.6205 35.812C18.5178 35.812 16.8068 37.5446 16.8068 39.6738V50.1557H13.8863C11.291 50.1557 9.17929 48.018 9.17929 45.39V20.7174C9.17929 18.0895 11.291 15.9517 13.8863 15.9517H47.678L49.5903 17.011L51.9227 21.3295C52.1137 21.684 52.4804 21.9038 52.8789 21.9038C53.2774 21.9038 53.6435 21.684 53.8351 21.3295L55.8858 17.5337C56.6668 18.4045 57.1236 19.5203 57.1236 20.7174V45.3903Z" fill="#E77523"/>
<path d="M5 2.5C4.44775 2.5 4 3.02387 4 3.6713V5.3287C4 5.97613 4.44775 6.5 5 6.5C5.55225 6.5 6 5.97613 6 5.3287V3.6713C6 3.02387 5.55225 2.5 5 2.5Z" fill="#E77523"/>
<path d="M5 8.5C4.44775 8.5 4 9.02387 4 9.6713V11.3287C4 11.9761 4.44775 12.5 5 12.5C5.55225 12.5 6 11.9761 6 11.3287V9.6713C6 9.02387 5.55225 8.5 5 8.5Z" fill="#E77523"/>
<path d="M2.8287 6.5H1.1713C0.52445 6.5 0 6.94725 0 7.5C0 8.05275 0.52445 8.5 1.1713 8.5H2.8287C3.47555 8.5 4 8.05275 4 7.5C4 6.94725 3.47555 6.5 2.8287 6.5Z" fill="#E77523"/>
<path d="M8.8287 8.5C9.47555 8.5 10 8.05275 10 7.5C10 6.94725 9.47555 6.5 8.8287 6.5H7.1713C6.52445 6.5 6 6.94725 6 7.5C6 8.05275 6.52445 8.5 7.1713 8.5H8.8287Z" fill="#E77523"/>
<path d="M57 56.5C54.7946 56.5 53 58.2946 53 60.5C53 62.7054 54.7946 64.5 57 64.5C59.2054 64.5 61 62.7054 61 60.5C61 58.2946 59.2054 56.5 57 56.5ZM57 62.2143C56.0546 62.2143 55.2857 61.4454 55.2857 60.5C55.2857 59.5546 56.0546 58.7857 57 58.7857C57.9454 58.7857 58.7143 59.5546 58.7143 60.5C58.7143 61.4454 57.9454 62.2143 57 62.2143Z" fill="#E77523"/>
<path d="M16 9.5C16.5524 9.5 17 9.0522 17 8.50012C17 7.94803 16.5522 7.5 16 7.5C15.4478 7.5 15 7.9478 15 8.50012C15 9.05244 15.4476 9.5 16 9.5Z" fill="#E77523"/>
<path d="M64 48.5C63.4476 48.5 63 48.9478 63 49.5001C63 50.0524 63.4478 50.5 64 50.5C64.5522 50.5 65 50.0522 65 49.5001C65 48.948 64.5524 48.5 64 48.5Z" fill="#E77523"/>
<path d="M17.5 19.5C15.57 19.5 14 21.07 14 23C14 24.93 15.57 26.5 17.5 26.5C19.43 26.5 21 24.93 21 23C21 21.07 19.43 19.5 17.5 19.5ZM17.5 24.1667C16.8569 24.1667 16.3333 23.6437 16.3333 23C16.3333 22.3563 16.8569 21.8333 17.5 21.8333C18.1431 21.8333 18.6667 22.3563 18.6667 23C18.6667 23.6437 18.1431 24.1667 17.5 24.1667Z" fill="#E77523"/>
<path d="M52.5 35.5C50.57 35.5 49 37.07 49 39C49 40.93 50.57 42.5 52.5 42.5C54.43 42.5 56 40.93 56 39C56 37.07 54.43 35.5 52.5 35.5ZM52.5 40.1667C51.8569 40.1667 51.3333 39.6437 51.3333 39C51.3333 38.3563 51.8569 37.8333 52.5 37.8333C53.1431 37.8333 53.6667 38.3563 53.6667 39C53.6667 39.6437 53.1431 40.1667 52.5 40.1667Z" fill="#E77523"/>
<path d="M15.5 29.5C14.6714 29.5 14 29.9477 14 30.5C14 31.0523 14.6717 31.5 15.5 31.5C16.3283 31.5 17 31.0523 17 30.5C17 29.9477 16.3286 29.5 15.5 29.5Z" fill="#E77523"/>
</g>
<defs>
<clipPath id="clip0_1_16">
<rect width="65" height="64" fill="white" transform="translate(0 0.5)"/>
</clipPath>
</defs>
</svg>
