<svg width="61" height="66" viewBox="0 0 61 66" fill="none" xmlns="http://www.w3.org/2000/svg">
<g clip-path="url(#clip0_1_29)">
<path d="M6 4.5C6.55275 4.5 7 3.97613 7 3.3287V1.6713C7 1.02387 6.55275 0.5 6 0.5C5.44725 0.5 5 1.02387 5 1.6713V3.3287C5 3.97613 5.44725 4.5 6 4.5Z" fill="#E77523"/>
<path d="M6 10.5C6.55275 10.5 7 9.97613 7 9.3287V7.6713C7 7.02387 6.55275 6.5 6 6.5C5.44725 6.5 5 7.02387 5 7.6713V9.3287C5 9.97613 5.44725 10.5 6 10.5Z" fill="#E77523"/>
<path d="M2.1713 6.5H3.8287C4.47613 6.5 5 6.05275 5 5.5C5 4.94725 4.47613 4.5 3.8287 4.5H2.1713C1.52387 4.5 1 4.94725 1 5.5C1 6.05275 1.52387 6.5 2.1713 6.5Z" fill="#E77523"/>
<path d="M8.1713 6.5H9.8287C10.4761 6.5 11 6.05275 11 5.5C11 4.94725 10.4761 4.5 9.8287 4.5H8.1713C7.52387 4.5 7 4.94725 7 5.5C7 6.05275 7.52416 6.5 8.1713 6.5Z" fill="#E77523"/>
<path d="M61 7.5C61 5.29457 59.2054 3.5 57 3.5C54.7946 3.5 53 5.29457 53 7.5C53 9.70543 54.7946 11.5 57 11.5C59.2054 11.5 61 9.70543 61 7.5ZM57 9.21429C56.0546 9.21429 55.2857 8.44543 55.2857 7.5C55.2857 6.55457 56.0546 5.78571 57 5.78571C57.9454 5.78571 58.7143 6.55457 58.7143 7.5C58.7143 8.44543 57.9454 9.21429 57 9.21429Z" fill="#E77523"/>
<path d="M6 54.5C3.79457 54.5 2 56.2946 2 58.5C2 60.7054 3.79457 62.5 6 62.5C8.20543 62.5 10 60.7054 10 58.5C10 56.2946 8.20543 54.5 6 54.5ZM6 60.2143C5.05457 60.2143 4.28571 59.4454 4.28571 58.5C4.28571 57.5546 5.05457 56.7857 6 56.7857C6.94543 56.7857 7.71429 57.5546 7.71429 58.5C7.71429 59.4454 6.94543 60.2143 6 60.2143Z" fill="#E77523"/>
<path d="M59 15.5C58.4476 15.5 58 15.9478 58 16.5001C58 17.0524 58.4478 17.5 59 17.5C59.5522 17.5 60 17.0522 60 16.5001C60 15.948 59.5524 15.5 59 15.5Z" fill="#E77523"/>
<path d="M14 50.5C13.4476 50.5 13 50.9478 13 51.5001C13 52.0524 13.4478 52.5 14 52.5C14.5522 52.5 15 52.0522 15 51.5001C15 50.948 14.5524 50.5 14 50.5Z" fill="#E77523"/>
<path d="M2 15.5001C2 14.9478 1.55215 14.5 1 14.5C0.447849 14.5 0 14.9478 0 15.5001C0 16.0524 0.447849 16.5 1 16.5C1.55215 16.5 2 16.0524 2 15.5001Z" fill="#E77523"/>
<path d="M51.1215 23.5069L47.2587 13.2954L50.6921 11.4333C51.0413 11.245 51.2579 10.8819 51.2579 10.4884C51.2579 10.0949 51.0413 9.7318 50.6921 9.54352L46.4378 7.23621L44.1101 3.01918C43.7302 2.32694 42.5838 2.32694 42.2036 3.01918L39.8759 7.23621L37.7088 8.41141C37.683 8.40953 37.6612 8.3966 37.6351 8.3966H18.3005C15.926 8.3966 13.7701 9.87806 12.9358 12.0814L8.60378 23.5344C6.57554 23.7989 5 25.5045 5 27.586V35.5363C5 37.8005 6.8576 39.6419 9.14182 39.6419H9.3478V41.8977C9.3478 43.6243 10.7649 45.029 12.5068 45.029H15.9714C17.7132 45.029 19.1304 43.6243 19.1304 41.8977V39.6419H21.3043V53.5937C21.3043 56.0577 23.3263 58.0623 25.8124 58.0623H28.0357C28.4167 59.1316 29.1893 59.9814 29.9298 60.4876C29.9319 60.4897 30.1738 60.695 30.5009 61.645C31.2917 63.9512 33.3776 65.5 35.6917 65.5H40.137C41.7707 65.5 43.3183 64.7434 44.2789 63.4744C45.4808 61.8831 46.1783 59.9787 46.2829 58.062H50.4919C52.9777 58.062 55 56.0577 55 53.5934V37.6457C55 37.2788 54.9424 36.9273 54.8579 36.586C54.9492 36.2461 55 35.8946 55 35.5361V27.5858C54.9997 25.4113 53.281 23.6448 51.1215 23.5069ZM41.1984 8.97544C41.381 8.87659 41.5308 8.72818 41.6305 8.54717L43.1569 5.78089L44.6832 8.54717C44.7829 8.72818 44.9327 8.87659 45.1153 8.97544L47.906 10.4884L45.1153 12.0025C44.9327 12.1013 44.7829 12.2497 44.6832 12.4307L43.1569 15.1959L41.6305 12.4307C41.5308 12.2497 41.381 12.1013 41.1984 12.0025L38.4077 10.4884L41.1984 8.97544ZM14.9714 12.8377C15.4883 11.4699 16.8268 10.5514 18.3002 10.5514H35.0642C35.0865 10.9197 35.2914 11.2553 35.6213 11.433L39.8756 13.7403L42.2033 17.9574C42.3933 18.3035 42.7596 18.5182 43.1566 18.5182C43.5536 18.5182 43.9199 18.3035 44.1098 17.9574L45.6468 15.1733L48.7889 23.4802H10.9459L14.9714 12.8377ZM7.1739 35.5363V27.586C7.1739 26.5108 8.05705 25.6354 9.14182 25.6354H50.8579C51.9427 25.6354 52.8258 26.5108 52.8258 27.586V33.8418C52.3174 33.5342 51.7457 33.329 51.1318 33.2414C51.3326 32.7294 51.4449 32.1834 51.4449 31.6264C51.4449 29.1663 49.4248 27.1642 46.9432 27.1642C44.4617 27.1642 42.4416 29.1666 42.4416 31.6264C42.4416 32.16 42.5392 32.6847 42.7234 33.1773H25.8127C23.3814 33.1773 21.4072 35.0978 21.3208 37.487H9.14182C8.05705 37.487 7.1739 36.6116 7.1739 35.5363ZM45.1992 33.1773C45.1848 33.1582 45.181 33.1348 45.1653 33.1162C44.8107 32.7027 44.6155 32.1734 44.6155 31.6264C44.6155 30.3542 45.6601 29.3191 46.9432 29.3191C48.2264 29.3191 49.271 30.3545 49.271 31.6264C49.271 32.1705 49.0767 32.6984 48.7242 33.1121C48.7074 33.1318 48.7033 33.1568 48.6881 33.1773H45.1992ZM16.9565 41.8977C16.9565 42.4364 16.5149 42.8741 15.9714 42.8741H12.5068C11.9633 42.8741 11.5217 42.4364 11.5217 41.8977V39.6419H16.9565V41.8977ZM44.1302 57.5656C44.1302 59.185 43.5645 60.8243 42.5392 62.1815C41.9797 62.9212 41.1041 63.3452 40.137 63.3452H35.6917C34.3085 63.3452 33.0507 62.3836 32.5594 60.9503C32.1645 59.8034 31.7219 59.0931 31.1678 58.7165C30.6126 58.3378 29.9651 57.5834 29.9651 56.708V49.6649C29.9651 49.3123 30.2102 49.0262 30.5118 49.0262C30.8238 49.0262 31.0871 49.3166 31.0871 49.6605V53.7704C31.0871 54.3659 31.5732 54.8478 32.174 54.8478C32.7748 54.8478 33.261 54.3659 33.261 53.7704V42.3354C33.261 42.0386 33.505 41.7967 33.8045 41.7967C34.1039 41.7967 34.3479 42.0386 34.3479 42.3354V53.2255C34.3479 53.821 34.8341 54.3029 35.4349 54.3029C36.0357 54.3029 36.5218 53.821 36.5218 53.2255V39.1379C36.5218 38.8411 36.7659 38.5992 37.0653 38.5992C37.3648 38.5992 37.6088 38.8411 37.6088 39.1379V52.2932C37.6088 52.8888 38.0949 53.3706 38.6957 53.3706C39.2966 53.3706 39.7827 52.8888 39.7827 52.2932V41.2327C39.7827 40.9358 40.0267 40.694 40.3262 40.694C40.6256 40.694 40.8696 40.9358 40.8696 41.2327V51.5975C40.8696 52.193 41.3558 52.6749 41.9566 52.6749C42.5574 52.6749 43.0435 52.193 43.0435 51.5975V44.5431C43.0435 44.2169 43.2876 43.9518 43.587 43.9518C43.8865 43.9518 44.1305 44.2169 44.1305 44.5431V49.3209V52.0322L44.1302 57.5656ZM52.8258 53.5937C52.8258 54.8699 51.7791 55.9074 50.4916 55.9074H46.3041V52.0322V49.3209V44.5431C46.3041 43.029 45.0856 41.797 43.5867 41.797C43.4006 41.797 43.2188 41.8164 43.0433 41.8525V41.2329C43.0433 39.7472 41.8248 38.5394 40.3259 38.5394C40.1202 38.5394 39.9213 38.5666 39.7286 38.6097C39.4802 37.3766 38.3813 36.4446 37.065 36.4446C35.5661 36.4446 34.3477 37.6524 34.3477 39.1382V39.6965C34.1721 39.661 33.9903 39.6421 33.8042 39.6421C32.3053 39.6421 31.0868 40.8499 31.0868 42.3357V46.9352C30.9009 46.8948 30.7091 46.8716 30.5115 46.8716C29.0116 46.8716 27.7909 48.1247 27.7909 49.6651V55.9077H25.8124C24.5249 55.9077 23.4782 54.8701 23.4782 53.5939V37.6462C23.4782 36.37 24.5249 35.3324 25.8124 35.3324H50.4916C51.7791 35.3324 52.8258 36.37 52.8258 37.6462V53.5937Z" fill="#E77523"/>
<path d="M12.5 27.5C10.0191 27.5 8 29.5191 8 31.9995C8 34.4811 10.0194 36.5 12.5 36.5C14.9806 36.5 17 34.4809 17 31.9995C17 29.5191 14.9809 27.5 12.5 27.5ZM12.5 34.3274C11.217 34.3274 10.1731 33.2833 10.1731 31.9997C10.1731 30.7169 11.2173 29.6731 12.5 29.6731C13.7827 29.6731 14.8269 30.7172 14.8269 31.9997C14.8269 33.2833 13.783 34.3274 12.5 34.3274Z" fill="#E77523"/>
</g>
<defs>
<clipPath id="clip0_1_29">
<rect width="61" height="65" fill="white" transform="translate(0 0.5)"/>
</clipPath>
</defs>
</svg>
