<svg width="430" height="430" viewBox="0 0 430 430" fill="none" xmlns="http://www.w3.org/2000/svg">
<path d="M248.65 365.74C226.321 374.253 202.258 377.212 178.531 374.363C154.805 371.514 132.127 362.941 112.448 349.384C92.7699 335.826 76.681 317.69 65.5664 296.535C54.4518 275.38 48.6445 251.842 48.6445 227.945C48.6445 204.048 54.4518 180.51 65.5664 159.355C76.681 138.201 92.7699 120.064 112.448 106.506C132.127 92.9486 154.805 84.3762 178.531 81.527C202.258 78.6778 226.321 81.637 248.65 90.15C220.757 100.824 196.761 119.711 179.833 144.315C162.904 168.918 153.841 198.08 153.841 227.945C153.841 257.81 162.904 286.972 179.833 311.575C196.761 336.179 220.757 355.066 248.65 365.74Z" fill="#EBE6EF"/>
<g style="mix-blend-mode:multiply" opacity="0.5">
<path d="M167.29 289.5C161.736 290.432 156.052 290.242 150.573 288.943C145.093 287.643 139.929 285.26 135.385 281.933C130.842 278.606 127.01 274.403 124.116 269.572C121.222 264.741 119.325 259.379 118.535 253.804C117.746 248.228 118.081 242.55 119.521 237.106C120.961 231.661 123.476 226.56 126.918 222.103C130.36 217.646 134.66 213.923 139.564 211.154C144.468 208.385 149.876 206.626 155.47 205.98C151.237 234.377 155.343 263.393 167.29 289.5Z" fill="#EBE6EF"/>
</g>
<g style="mix-blend-mode:multiply" opacity="0.5">
<path d="M125.001 328.87C124.998 333.315 123.351 337.602 120.376 340.905C117.402 344.208 113.311 346.293 108.891 346.76C101.775 341.514 95.1395 335.648 89.0605 329.23C89.0605 329.11 89.0605 328.99 89.0605 328.87C89.0605 324.096 90.957 319.518 94.3326 316.142C97.7083 312.766 102.287 310.87 107.061 310.87C111.834 310.87 116.413 312.766 119.788 316.142C123.164 319.518 125.061 324.096 125.061 328.87H125.001Z" fill="#EBE6EF"/>
</g>
<g style="mix-blend-mode:multiply" opacity="0.5">
<path d="M61.3694 167.61C65.2924 164.025 70.3033 161.857 75.6023 161.453C80.9013 161.049 86.183 162.431 90.6045 165.38C95.026 168.328 98.3324 172.673 99.9961 177.72C101.66 182.767 101.585 188.226 99.783 193.226C97.9813 198.226 94.5567 202.478 90.0559 205.304C85.555 208.129 80.2373 209.366 74.9514 208.816C69.6655 208.267 64.7161 205.962 60.893 202.271C57.07 198.579 54.5937 193.713 53.8594 188.45L61.3694 167.61Z" fill="#EBE6EF"/>
</g>
<g style="mix-blend-mode:multiply" opacity="0.5">
<path d="M171.84 348.73C174.502 348.73 176.66 346.572 176.66 343.91C176.66 341.248 174.502 339.09 171.84 339.09C169.178 339.09 167.02 341.248 167.02 343.91C167.02 346.572 169.178 348.73 171.84 348.73Z" fill="#EBE6EF"/>
</g>
<g style="mix-blend-mode:multiply" opacity="0.5">
<path d="M134.121 166.18C136.783 166.18 138.941 164.022 138.941 161.36C138.941 158.698 136.783 156.54 134.121 156.54C131.459 156.54 129.301 158.698 129.301 161.36C129.301 164.022 131.459 166.18 134.121 166.18Z" fill="#EBE6EF"/>
</g>
<g style="mix-blend-mode:multiply" opacity="0.5">
<path d="M153.381 125.78C156.043 125.78 158.201 123.622 158.201 120.96C158.201 118.298 156.043 116.14 153.381 116.14C150.719 116.14 148.561 118.298 148.561 120.96C148.561 123.622 150.719 125.78 153.381 125.78Z" fill="#EBE6EF"/>
</g>
<g style="mix-blend-mode:multiply" opacity="0.5">
<path d="M194.37 371.06C198.893 371.06 202.56 367.393 202.56 362.87C202.56 358.347 198.893 354.68 194.37 354.68C189.846 354.68 186.18 358.347 186.18 362.87C186.18 367.393 189.846 371.06 194.37 371.06Z" fill="#EBE6EF"/>
</g>
<g style="mix-blend-mode:multiply" opacity="0.5">
<path d="M194.37 83.12C194.37 85.2921 193.507 87.3753 191.972 88.9112C190.436 90.4471 188.352 91.31 186.18 91.31C184.008 91.31 181.925 90.4471 180.389 88.9112C178.853 87.3753 177.99 85.2921 177.99 83.12C177.988 82.5892 178.041 82.0595 178.15 81.54C183.388 80.9148 188.656 80.5677 193.93 80.5C194.222 81.3427 194.371 82.2282 194.37 83.12Z" fill="#EBE6EF"/>
</g>
<g style="mix-blend-mode:multiply" opacity="0.5">
<path d="M85.6197 256.11C90.1429 256.11 93.8097 252.443 93.8097 247.92C93.8097 243.397 90.1429 239.73 85.6197 239.73C81.0965 239.73 77.4297 243.397 77.4297 247.92C77.4297 252.443 81.0965 256.11 85.6197 256.11Z" fill="#EBE6EF"/>
</g>
<path d="M271.419 180.25L303.289 194.72L271.419 209.2L255.959 241.07L240.499 209.2L208.619 194.72L240.499 180.25L255.959 148.37L271.419 180.25Z" fill="#FFC738"/>
<path d="M319.369 304.51L342.049 314.81L319.369 325.1L308.369 347.78L297.369 325.1L274.689 314.81L297.369 304.51L308.369 281.83L319.369 304.51Z" fill="#FFC738"/>
<path d="M359.049 77.68L381.729 87.98L359.049 98.28L348.049 120.96L337.049 98.28L314.369 87.98L337.049 77.68L348.049 55L359.049 77.68Z" fill="#FFC738"/>
<g style="mix-blend-mode:multiply" opacity="0.5">
<path d="M260.949 230.81L255.959 241.09L240.499 209.22L208.619 194.74L219.339 189.88L247.239 202.55L260.949 230.81Z" fill="#FFC738"/>
</g>
<g style="mix-blend-mode:multiply" opacity="0.5">
<path d="M313.369 337.52L308.379 347.8L297.379 325.13L274.699 314.83L285.409 309.96L304.119 318.46L313.369 337.52Z" fill="#FFC738"/>
</g>
<g style="mix-blend-mode:multiply" opacity="0.5">
<path d="M353.051 110.7L348.061 120.98L337.051 98.3L314.381 88L325.091 83.13L343.801 91.63L353.051 110.7Z" fill="#FFC738"/>
</g>
<path d="M248.651 365.74C226.32 374.258 202.253 377.222 178.523 374.375C154.792 371.529 132.109 362.957 112.426 349.399C92.7436 335.841 76.6508 317.703 65.5335 296.545C54.4161 275.388 48.6074 251.845 48.6074 227.945C48.6074 204.045 54.4161 180.502 65.5335 159.345C76.6508 138.187 92.7436 120.049 112.426 106.491C132.109 92.9325 154.792 84.3613 178.523 81.5147C202.253 78.6682 226.32 81.6317 248.651 90.15C220.758 100.824 196.762 119.711 179.834 144.315C162.905 168.918 153.842 198.08 153.842 227.945C153.842 257.81 162.905 286.972 179.834 311.575C196.762 336.179 220.758 355.066 248.651 365.74Z" stroke="#121331" stroke-width="7" stroke-linecap="round" stroke-linejoin="round"/>
<path d="M271.419 180.25L303.289 194.72L271.419 209.2L255.959 241.07L240.499 209.2L208.619 194.72L240.499 180.25L255.959 148.37L271.419 180.25Z" stroke="#121331" stroke-width="7" stroke-linecap="round" stroke-linejoin="round"/>
<path d="M319.369 304.51L342.049 314.81L319.369 325.1L308.369 347.78L297.369 325.1L274.689 314.81L297.369 304.51L308.369 281.83L319.369 304.51Z" stroke="#121331" stroke-width="7" stroke-linecap="round" stroke-linejoin="round"/>
<path d="M359.049 77.68L381.729 87.98L359.049 98.28L348.049 120.96L337.049 98.28L314.369 87.98L337.049 77.68L348.049 55L359.049 77.68Z" stroke="#121331" stroke-width="7" stroke-linecap="round" stroke-linejoin="round"/>
</svg>
